<svg width="56" height="56" viewBox="0 0 56 56" fill="none" xmlns="http://www.w3.org/2000/svg">
<path fill-rule="evenodd" clip-rule="evenodd" d="M25.1603 29.3259C23.0811 31.2445 20.3027 32.4166 17.2505 32.4166C10.8071 32.4166 5.58379 27.1932 5.58379 20.7499C5.58379 14.3066 10.8071 9.08325 17.2505 9.08325C21.9534 9.08325 26.0064 11.866 27.8528 15.8747C28.396 15.5971 28.9708 15.3751 29.5691 15.2148C31.8107 14.6141 34.1991 14.9286 36.2088 16.0889C38.2185 17.2492 39.685 19.1604 40.2857 21.4019C40.8863 23.6435 40.5718 26.0319 39.4115 28.0416C38.2512 30.0513 36.34 31.5178 34.0985 32.1185C31.8569 32.7191 29.4685 32.4047 27.4588 31.2443C26.5797 30.7368 25.8045 30.0856 25.1603 29.3259ZM17.2505 26.5833C20.4721 26.5833 23.0838 23.9716 23.0838 20.7499C23.0838 17.5283 20.4721 14.9166 17.2505 14.9166C14.0288 14.9166 11.4171 17.5283 11.4171 20.7499C11.4171 23.9716 14.0288 26.5833 17.2505 26.5833ZM33.2921 21.1407C32.6222 20.7539 31.8261 20.6491 31.0789 20.8493C30.3317 21.0495 29.6947 21.5384 29.3079 22.2083C28.9211 22.8782 28.8163 23.6743 29.0165 24.4215C29.2167 25.1687 29.7056 25.8057 30.3755 26.1925C31.0454 26.5793 31.8415 26.6841 32.5887 26.4839C33.3359 26.2837 33.9729 25.7949 34.3597 25.1249C34.7465 24.455 34.8513 23.6589 34.6511 22.9117C34.4509 22.1645 33.962 21.5275 33.2921 21.1407Z" fill="#FAFAFA"/>
<path fill-rule="evenodd" clip-rule="evenodd" d="M25.2269 36.9443C23.0356 35.9344 20.3974 35.3333 17.2505 35.3333C11.2532 35.3333 7.10383 37.5167 4.3733 40.5507C1.73458 43.4828 0.625985 46.9761 0.147145 49.3705C-0.595511 53.0842 2.4841 55.7499 5.58379 55.7499H28.9171C30.9253 55.7499 32.925 54.6311 33.8824 52.8333H40.1965C43.5391 52.8333 46.8294 49.6816 45.4333 45.7454C44.0769 41.9213 40.4337 35.3333 31.8338 35.3333C29.2572 35.3333 27.0626 35.9439 25.2269 36.9443ZM23.9877 42.9054C25.3879 43.8195 26.3997 45.0369 27.1282 46.3298C27.8019 47.5276 28.2323 48.7877 28.5025 49.9166H5.99846C6.41634 48.1706 7.21742 46.1106 8.70928 44.4529C10.2836 42.7036 12.8307 41.1666 17.2505 41.1666C20.279 41.1666 22.4282 41.8883 23.9877 42.9054ZM33.7402 46.9999C33.3767 45.8673 32.8765 44.6418 32.1859 43.4226C31.7671 42.6825 31.2783 41.9444 30.7073 41.2313C31.0623 41.1891 31.4373 41.1666 31.8338 41.1666C36.2642 41.1666 38.4958 44.1161 39.671 46.9999H33.7402Z" fill="#FAFAFA"/>
<path d="M49.3338 3.24992C49.3338 1.63909 48.028 0.333252 46.4171 0.333252C44.8063 0.333252 43.5005 1.63909 43.5005 3.24992V6.16659H40.5838C38.973 6.16658 37.6671 7.47242 37.6671 9.08325C37.6671 10.6941 38.973 11.9999 40.5838 11.9999H43.5005V14.9166C43.5005 16.5274 44.8063 17.8333 46.4171 17.8333C48.028 17.8333 49.3338 16.5274 49.3338 14.9166V11.9999H52.2505C53.8613 11.9999 55.1671 10.6941 55.1671 9.08325C55.1671 7.47242 53.8613 6.16659 52.2505 6.16659H49.3338V3.24992Z" fill="#FAFAFA"/>
</svg>
