<svg width="24" height="24" viewBox="0 0 24 24" fill="none" xmlns="http://www.w3.org/2000/svg">
<path d="M11.9921 7C8.40351 7 6.44571 8.76109 5.34015 10.53C4.77659 11.4317 4.43425 12.3414 4.2334 13.03C4.13348 13.3726 4.06997 13.6556 4.03199 13.849C4.01302 13.9455 4.0005 14.0193 3.99303 14.0665C3.98929 14.0901 3.98682 14.107 3.98545 14.1168L3.98432 14.1249C3.98432 14.1249 3.98443 14.124 2.99215 14C1.99987 13.876 2 13.8749 2 13.8749L2.00054 13.8707L2.00162 13.8624L2.00507 13.8373C2.00797 13.8168 2.01209 13.7888 2.01764 13.7538C2.02872 13.6838 2.04549 13.5857 2.06949 13.4635C2.11745 13.2194 2.19456 12.8774 2.3134 12.47C2.55004 11.6586 2.9577 10.5683 3.64415 9.47C5.03858 7.23891 7.58079 5 11.9921 5C16.4035 5 18.9457 7.23891 20.3401 9.47C21.0266 10.5683 21.4342 11.6586 21.6709 12.47C21.7897 12.8774 21.8668 13.2194 21.9148 13.4635C21.9388 13.5857 21.9556 13.6838 21.9667 13.7538C21.9722 13.7888 21.9763 13.8168 21.9792 13.8373L21.9827 13.8624L21.9838 13.8707L21.9841 13.8737L21.9843 13.8749C21.9843 13.8749 21.9844 13.876 20.9921 14C19.9999 14.124 20 14.1249 20 14.1249L19.9988 14.1168C19.9975 14.107 19.995 14.0901 19.9913 14.0665C19.9838 14.0193 19.9713 13.9455 19.9523 13.849C19.9143 13.6556 19.8508 13.3726 19.7509 13.03C19.55 12.3414 19.2077 11.4317 18.6441 10.53C17.5386 8.76109 15.5808 7 11.9921 7Z" fill="#203D53"/>
<path d="M11.9921 18C14.2013 18 15.9921 16.2091 15.9921 14C15.9921 11.7909 14.2013 10 11.9921 10C9.78301 10 7.99215 11.7909 7.99215 14C7.99215 16.2091 9.78301 18 11.9921 18Z" fill="#203D53"/>
</svg>
