<svg width="20" height="16" viewBox="0 0 20 16" fill="none" xmlns="http://www.w3.org/2000/svg">
<path d="M4.11346 0.292893C3.72294 -0.0976311 3.08977 -0.0976311 2.69925 0.292893C2.30872 0.683417 2.30872 1.31658 2.69925 1.70711L16.285 15.2929C16.6756 15.6834 17.3087 15.6834 17.6992 15.2929C18.0898 14.9024 18.0898 14.2692 17.6992 13.8787L13.8812 10.0607C13.5312 8.60601 12.3861 7.46099 10.9315 7.11091L8.01974 4.19917C8.61555 4.07113 9.27091 4 9.99215 4C13.5808 4 15.5386 5.76109 16.6441 7.53C17.2077 8.43168 17.55 9.34136 17.7509 10.03C17.8508 10.3726 17.9143 10.6556 17.9523 10.849C17.9713 10.9455 17.9838 11.0193 17.9913 11.0665C17.995 11.0901 17.9975 11.107 17.9988 11.1168L18 11.1249C18 11.1249 17.9999 11.124 18.9921 11C19.9844 10.876 19.9843 10.8749 19.9843 10.8749L19.9841 10.8737L19.9838 10.8707L19.9827 10.8624L19.9792 10.8373C19.9763 10.8168 19.9722 10.7888 19.9667 10.7538C19.9556 10.6838 19.9388 10.5857 19.9148 10.4635C19.8668 10.2194 19.7897 9.87743 19.6709 9.47C19.4342 8.65864 19.0266 7.56832 18.3401 6.47C16.9457 4.23891 14.4035 2 9.99215 2C8.62206 2 7.43227 2.21597 6.40116 2.5806L4.11346 0.292893Z" fill="#203D53"/>
<path d="M1.64415 6.47C2.09395 5.75032 2.66318 5.02982 3.37606 4.38391L4.79158 5.79944C4.18919 6.32963 3.71554 6.92937 3.34015 7.53C2.77659 8.43168 2.43425 9.34136 2.2334 10.03C2.13348 10.3726 2.06997 10.6556 2.03199 10.849C2.01302 10.9455 2.0005 11.0193 1.99303 11.0665C1.98929 11.0901 1.98682 11.107 1.98545 11.1168L1.98432 11.1249C1.98432 11.1249 1.98443 11.124 0.992148 11C-0.000130236 10.876 0 10.8749 0 10.8749L0.000543714 10.8707L0.00162357 10.8624L0.00507277 10.8373C0.0079689 10.8168 0.0120929 10.7888 0.0176351 10.7538C0.0287155 10.6838 0.0454896 10.5857 0.0694926 10.4635C0.117445 10.2194 0.194564 9.87743 0.313398 9.47C0.550044 8.65864 0.957701 7.56832 1.64415 6.47Z" fill="#203D53"/>
<path d="M5.99215 11C5.99215 9.89543 6.43986 8.89543 7.16372 8.17158L12.8206 13.8284C12.0967 14.5523 11.0967 15 9.99215 15C7.78301 15 5.99215 13.2091 5.99215 11Z" fill="#203D53"/>
</svg>
