<svg width="24" height="24" viewBox="0 0 24 24" fill="none" xmlns="http://www.w3.org/2000/svg">
<path d="M9.46927 7.30448C9.95457 7.10346 10.4747 7 11 7C11.5523 7 12 7.44772 12 8C12 8.55228 11.5523 9 11 9C10.7374 9 10.4773 9.05173 10.2346 9.15224C9.99198 9.25275 9.7715 9.40007 9.58579 9.58579C9.40007 9.7715 9.25275 9.99198 9.15224 10.2346C9.05173 10.4773 9 10.7374 9 11C9 11.5523 8.55228 12 8 12C7.44772 12 7 11.5523 7 11C7 10.4747 7.10346 9.95457 7.30448 9.46927C7.5055 8.98396 7.80014 8.54301 8.17157 8.17157C8.54301 7.80014 8.98396 7.5055 9.46927 7.30448Z" fill="#203D53"/>
<path fill-rule="evenodd" clip-rule="evenodd" d="M3 11C3 6.58172 6.58172 3 11 3C15.4183 3 19 6.58172 19 11C19 12.9036 18.3351 14.652 17.2249 16.0255C17.4016 16.0661 17.5694 16.1552 17.7071 16.2929L20.7071 19.2929C21.0976 19.6834 21.0976 20.3166 20.7071 20.7071C20.3166 21.0976 19.6834 21.0976 19.2929 20.7071L16.2929 17.7071C16.1552 17.5694 16.0661 17.4016 16.0255 17.2249C14.652 18.3351 12.9036 19 11 19C6.58172 19 3 15.4183 3 11ZM11 5C7.68629 5 5 7.68629 5 11C5 14.3137 7.68629 17 11 17C14.3137 17 17 14.3137 17 11C17 7.68629 14.3137 5 11 5Z" fill="#203D53"/>
</svg>
