<svg width="12" height="13" viewBox="0 0 12 13" fill="none" xmlns="http://www.w3.org/2000/svg">
<path d="M2.78033 5.03033C2.48744 5.32322 2.01256 5.32322 1.71967 5.03033C1.42678 4.73744 1.42678 4.26256 1.71967 3.96967L5.46967 0.21967C5.76256 -0.0732233 6.23744 -0.0732233 6.53033 0.21967L10.2803 3.96967C10.5732 4.26256 10.5732 4.73744 10.2803 5.03033C9.98744 5.32322 9.51256 5.32322 9.21967 5.03033L6.75 2.56066V5.625C6.75 6.03921 6.41421 6.375 6 6.375C5.58579 6.375 5.25 6.03921 5.25 5.625V2.56066L2.78033 5.03033Z" fill="#F86443"/>
<path d="M5.25 9.375V6.75H1.5C0.671573 6.75 0 7.42157 0 8.25V11.25C0 12.0784 0.671573 12.75 1.5 12.75H10.5C11.3284 12.75 12 12.0784 12 11.25V8.25C12 7.42157 11.3284 6.75 10.5 6.75H6.75V9.375C6.75 9.78921 6.41421 10.125 6 10.125C5.58579 10.125 5.25 9.78921 5.25 9.375Z" fill="#F86443"/>
</svg>
