<svg width="48" height="59" viewBox="0 0 48 59" fill="none" xmlns="http://www.w3.org/2000/svg">
<path fill-rule="evenodd" clip-rule="evenodd" d="M23.9995 0.333252C15.9454 0.333252 9.41619 6.86243 9.41619 14.9166C9.41619 22.9707 15.9454 29.4999 23.9995 29.4999C32.0537 29.4999 38.5829 22.9707 38.5829 14.9166C38.5829 6.86243 32.0537 0.333252 23.9995 0.333252ZM15.2495 14.9166C15.2495 10.0841 19.167 6.16658 23.9995 6.16658C28.832 6.16658 32.7495 10.0841 32.7495 14.9166C32.7495 19.7491 28.832 23.6666 23.9995 23.6666C19.167 23.6666 15.2495 19.7491 15.2495 14.9166Z" fill="#FFE8E8"/>
<path fill-rule="evenodd" clip-rule="evenodd" d="M22.9571 32.4166C13.741 32.4166 4.07333 37.3608 1.73007 47.2633C1.33223 48.9445 1.01125 50.7235 0.829579 52.5492C0.480575 56.0566 3.35834 58.6666 6.49953 58.6666H41.4995C44.6407 58.6666 47.5185 56.0566 47.1695 52.5493C46.9878 50.7235 46.6668 48.9445 46.269 47.2632C43.9257 37.3607 34.258 32.4166 25.042 32.4166H22.9571ZM7.40664 48.6065C8.9197 42.2124 15.4264 38.2499 22.9571 38.2499H25.042C32.5726 38.2499 39.0794 42.2124 40.5924 48.6065C40.9184 49.9842 41.1776 51.4046 41.3341 52.8332H6.66494C6.82143 51.4046 7.08063 49.9842 7.40664 48.6065Z" fill="#FFE8E8"/>
</svg>
