<svg width="58" height="47" viewBox="0 0 58 47" fill="none" xmlns="http://www.w3.org/2000/svg">
<path fill-rule="evenodd" clip-rule="evenodd" d="M47.9587 7.17236C45.9489 6.01204 43.5606 5.6976 41.319 6.29823C39.0774 6.89886 37.1663 8.36534 36.0059 10.3751C34.8456 12.3848 34.5312 14.7732 35.1318 17.0147C35.7324 19.2563 37.1989 21.1675 39.2087 22.3278C41.2184 23.4881 43.6068 23.8026 45.8483 23.2019C48.0899 22.6013 50.0011 21.1348 51.1614 19.1251C52.3217 17.1153 52.6362 14.727 52.0355 12.4854C51.4349 10.2438 49.9684 8.33268 47.9587 7.17236ZM42.8288 11.9328C43.576 11.7326 44.3721 11.8374 45.042 12.2242C45.7119 12.6109 46.2007 13.248 46.401 13.9952C46.6012 14.7424 46.4964 15.5385 46.1096 16.2084C45.7228 16.8783 45.0857 17.3672 44.3386 17.5674C43.5914 17.7676 42.7952 17.6628 42.1253 17.276C41.4554 16.8892 40.9666 16.2522 40.7664 15.505C40.5662 14.7578 40.671 13.9617 41.0578 13.2917C41.4445 12.6218 42.0816 12.133 42.8288 11.9328Z" fill="#FAFAFA"/>
<path fill-rule="evenodd" clip-rule="evenodd" d="M43.5837 26.4167C40.1948 26.4167 37.4668 27.473 35.3469 29.0832L31.9736 31.6454L35.5707 33.8825C38.6015 35.7675 39.871 39.0529 40.3792 41.5759L40.8506 43.9167H51.9464C55.2889 43.9167 58.5793 40.7651 57.1831 36.8289C55.8268 33.0048 52.1835 26.4167 43.5837 26.4167ZM45.4894 38.0834C44.9071 36.27 43.9703 34.2047 42.4572 32.3148C42.8122 32.2725 43.1871 32.2501 43.5837 32.2501C48.0141 32.2501 50.2456 35.1995 51.4209 38.0834H45.4894Z" fill="#FAFAFA"/>
<path fill-rule="evenodd" clip-rule="evenodd" d="M18.792 7.17236C16.7823 6.01204 14.3939 5.6976 12.1523 6.29823C9.91077 6.89886 7.9996 8.36534 6.83928 10.3751C5.67896 12.3848 5.36453 14.7732 5.96515 17.0147C6.56578 19.2563 8.03227 21.1675 10.042 22.3278C12.0517 23.4881 14.4401 23.8026 16.6817 23.2019C18.9232 22.6013 20.8344 21.1348 21.9947 19.1251C23.155 17.1153 23.4695 14.727 22.8689 12.4854C22.2682 10.2438 20.8017 8.33268 18.792 7.17236ZM13.6621 11.9328C14.4093 11.7326 15.2054 11.8374 15.8753 12.2242C16.5452 12.6109 17.0341 13.248 17.2343 13.9952C17.4345 14.7424 17.3297 15.5385 16.9429 16.2084C16.5561 16.8783 15.9191 17.3672 15.1719 17.5674C14.4247 17.7676 13.6286 17.6628 12.9587 17.276C12.2888 16.8892 11.7999 16.2522 11.5997 15.505C11.3995 14.7578 11.5043 13.9617 11.8911 13.2917C12.2779 12.6218 12.9149 12.133 13.6621 11.9328Z" fill="#FAFAFA"/>
<path fill-rule="evenodd" clip-rule="evenodd" d="M14.417 26.4167C5.81723 26.4167 2.17395 33.0047 0.817552 36.8288C-0.578645 40.7651 2.71175 43.9167 6.05429 43.9167H17.15L17.6215 41.5759C18.1296 39.0529 19.3991 35.7675 22.43 33.8825L26.0271 31.6453L22.6538 29.0831C20.5339 27.473 17.8059 26.4167 14.417 26.4167ZM12.5112 38.0834H6.57983C7.7551 35.1995 9.98667 32.2501 14.417 32.2501C14.8136 32.2501 15.1885 32.2725 15.5435 32.3147C14.0303 34.2047 13.0935 36.27 12.5112 38.0834Z" fill="#FAFAFA"/>
<path fill-rule="evenodd" clip-rule="evenodd" d="M40.667 11.8334C40.667 18.2767 35.4437 23.5001 29.0003 23.5001C22.557 23.5001 17.3337 18.2767 17.3337 11.8334C17.3337 5.39009 22.557 0.166748 29.0003 0.166748C35.4437 0.166748 40.667 5.39009 40.667 11.8334ZM34.8337 11.8334C34.8337 15.0551 32.222 17.6667 29.0003 17.6667C25.7787 17.6667 23.167 15.0551 23.167 11.8334C23.167 8.61175 25.7787 6.00008 29.0003 6.00008C32.222 6.00008 34.8337 8.61175 34.8337 11.8334Z" fill="#FAFAFA"/>
<path fill-rule="evenodd" clip-rule="evenodd" d="M29.0003 26.4167C23.0031 26.4167 18.8537 28.6002 16.1232 31.6342C13.4845 34.5663 12.3759 38.0596 11.897 40.454C11.1544 44.1677 14.234 46.8334 17.3337 46.8334H40.667C43.7667 46.8334 46.8463 44.1677 46.1037 40.454C45.6248 38.0596 44.5162 34.5663 41.8775 31.6342C39.147 28.6002 34.9976 26.4167 29.0003 26.4167ZM37.5415 35.5364C39.0334 37.1941 39.8345 39.254 40.2523 41.0001H17.7483C18.1662 39.254 18.9673 37.1941 20.4592 35.5364C22.0335 33.7871 24.5806 32.2501 29.0003 32.2501C33.4201 32.2501 35.9672 33.7871 37.5415 35.5364Z" fill="#FAFAFA"/>
</svg>
